<?xml version="1.0" encoding="utf-8"?>
<!-- Generator: Adobe Illustrator 27.2.0, SVG Export Plug-In . SVG Version: 6.00 Build 0)  -->
<svg version="1.1" id="Layer_1" xmlns="http://www.w3.org/2000/svg" xmlns:xlink="http://www.w3.org/1999/xlink" x="0px" y="0px"
	 viewBox="0 0 612 792" style="enable-background:new 0 0 612 792;" xml:space="preserve">
<g>
	<g>
		<path d="M205.25,269.83c-5.52-1.01-11.12-0.46-16.28,1.77c-2.34,1.01-4.91,2.49-4.91,5.39c-0.01,2.45,1.94,4.36,4.01,5.38
			c2.39,1.18,5.17,1.44,7.79,1.72c2.86,0.3,5.75,0.34,8.62,0.11c2.93-0.23,5.86-0.69,8.71-1.42c2.47-0.63,5.34-1.83,5.54-4.77
			c0.2-2.97-2.33-5.53-4.84-6.74c-2.45-1.18-5.1-1.57-7.78-1.84c-1.35-0.14-2.5,1.25-2.5,2.5c0,1.47,1.15,2.36,2.5,2.5
			c1.49,0.15,2.97,0.38,4.4,0.84c1.3,0.42,2.07,1.08,3.02,2c0.6,0.58-0.11,0.18,0.29,0.07c-0.09,0.03-0.27,0.15-0.38,0.16
			c-0.88,0.09-1.84,0.53-2.72,0.73c-1.98,0.46-3.99,0.78-6.02,0.95c-4.11,0.34-8.29,0.18-12.34-0.63c-0.66-0.13-1.32-0.28-1.93-0.58
			c-0.34-0.17-1.1-0.9-1.32-0.95c-0.28-0.06,0.13,0-0.1,0.22c-0.11,0.1,0.01-0.07,0-0.07c0.16,0.04,0.9-0.53,1.11-0.63
			c0.38-0.19,0.77-0.38,1.17-0.54c3.96-1.64,8.41-2.13,12.63-1.35c1.33,0.24,2.7-0.36,3.08-1.75
			C207.33,271.69,206.59,270.07,205.25,269.83L205.25,269.83z"/>
	</g>
</g>
<g>
	<g>
		<path d="M236.49,268.12c-0.09,0.02-0.18,0.04-0.27,0.08c-0.28,0.1-0.58,0.21-0.84,0.37c-0.32,0.21-0.65,0.45-0.89,0.75
			c-0.43,0.53-0.64,0.9-0.89,1.53c-0.15,0.38-0.18,0.79-0.23,1.2c-0.02,0.2-0.03,0.4,0,0.61c0.05,0.41,0.08,0.82,0.24,1.2
			c0.26,0.63,0.45,1,0.91,1.53c0.06,0.07,0.13,0.13,0.2,0.19c0.23,0.19,0.47,0.4,0.73,0.54c0.5,0.27,0.96,0.42,1.51,0.49
			c0.58,0.08,1.01,0.05,1.6-0.05c0.42-0.07,0.83-0.26,1.21-0.45c0.39-0.19,0.74-0.47,1.06-0.75c0.33-0.28,0.59-0.64,0.83-0.99
			c0.07-0.1,0.12-0.2,0.17-0.31c0.13-0.28,0.27-0.58,0.36-0.88c0.06-0.2,0.08-0.42,0.11-0.63c0.03-0.24,0.07-0.48,0.06-0.72
			c-0.03-0.46-0.09-0.95-0.26-1.38c-0.12-0.31-0.24-0.64-0.42-0.93c-0.18-0.3-0.4-0.57-0.62-0.84c-0.32-0.38-0.73-0.69-1.13-0.96
			c-0.41-0.28-0.89-0.47-1.36-0.62c-0.49-0.15-1.02-0.22-1.53-0.2c-0.66,0.03-1.3,0.26-1.77,0.73c-0.43,0.43-0.76,1.15-0.73,1.77
			c0.03,0.65,0.24,1.32,0.73,1.77c0.48,0.44,1.1,0.76,1.77,0.73c0.15-0.01,0.29,0,0.44,0.02c-0.22-0.03-0.44-0.06-0.66-0.09
			c0.25,0.04,0.49,0.1,0.73,0.2c-0.2-0.08-0.4-0.17-0.6-0.25c0.23,0.1,0.45,0.23,0.65,0.39c-0.17-0.13-0.34-0.26-0.51-0.39
			c0.18,0.15,0.34,0.31,0.49,0.49c-0.13-0.17-0.26-0.34-0.39-0.51c0.14,0.18,0.26,0.37,0.35,0.58c-0.08-0.2-0.17-0.4-0.25-0.6
			c0.08,0.19,0.13,0.39,0.17,0.59c-0.03-0.22-0.06-0.44-0.09-0.66c0.02,0.18,0.03,0.36,0,0.54c0.03-0.22,0.06-0.44,0.09-0.66
			c-0.03,0.18-0.07,0.35-0.15,0.52c0.08-0.2,0.17-0.4,0.25-0.6c-0.07,0.17-0.17,0.32-0.28,0.47c0.13-0.17,0.26-0.34,0.39-0.51
			c-0.13,0.16-0.27,0.3-0.42,0.43c0.17-0.13,0.34-0.26,0.51-0.39c-0.17,0.13-0.36,0.25-0.56,0.34c0.2-0.08,0.4-0.17,0.6-0.25
			c-0.2,0.08-0.41,0.14-0.62,0.17c0.22-0.03,0.44-0.06,0.66-0.09c-0.18,0.02-0.35,0.02-0.53,0c0.22,0.03,0.44,0.06,0.66,0.09
			c-0.14-0.02-0.28-0.06-0.41-0.11c0.2,0.08,0.4,0.17,0.6,0.25c-0.13-0.05-0.25-0.12-0.36-0.2c0.17,0.13,0.34,0.26,0.51,0.39
			c-0.11-0.09-0.21-0.18-0.29-0.29c0.13,0.17,0.26,0.34,0.39,0.51c-0.08-0.11-0.15-0.23-0.21-0.35c0.08,0.2,0.17,0.4,0.25,0.6
			c-0.07-0.17-0.12-0.35-0.15-0.53c0.03,0.22,0.06,0.44,0.09,0.66c-0.02-0.2-0.02-0.4,0-0.61c-0.03,0.22-0.06,0.44-0.09,0.66
			c0.03-0.18,0.07-0.36,0.14-0.54c-0.08,0.2-0.17,0.4-0.25,0.6c0.07-0.15,0.15-0.3,0.25-0.43c-0.13,0.17-0.26,0.34-0.39,0.51
			c0.08-0.11,0.17-0.2,0.28-0.28c-0.17,0.13-0.34,0.26-0.51,0.39c0.1-0.07,0.2-0.13,0.3-0.18c-0.2,0.08-0.4,0.17-0.6,0.25
			c0.1-0.04,0.2-0.07,0.31-0.09c0.59-0.12,1.2-0.65,1.49-1.15c0.31-0.54,0.45-1.33,0.25-1.93c-0.2-0.6-0.57-1.19-1.15-1.49
			c-0.2-0.08-0.4-0.17-0.6-0.25C237.37,268,236.93,268,236.49,268.12L236.49,268.12z"/>
	</g>
</g>
<g>
	<g>
		<path d="M207.83,267.48c-0.63-6.51-0.56-13.85,3.61-18.82c5.02-5.98,13.01-8.38,20.58-8.85c3.98-0.24,8.11-0.19,12.05,0.52
			c3.49,0.63,7.12,1.75,9.83,4.15c6.19,5.51,5.43,14.75,4.59,22.21c-1.11,9.94-2.15,19.84-2.53,29.84
			c-0.39,10.23-0.29,20.48,0.31,30.7c0.56,9.62,1.52,19.45,5.65,28.28c3.36,7.16,9.17,13.62,16.82,16.17
			c9.13,3.04,18.58-0.59,26.76-4.62c4.29-2.11,8.48-4.42,12.82-6.42c4.3-1.98,8.69-3.74,13.17-5.29c8.95-3.09,18.2-5.33,27.57-6.64
			c2.25-0.31,4.5-0.56,6.76-0.76c1.89-0.16,3.8-0.36,5.69-0.15c1.13,0.13,2.63,0.53,3.39,1.15c0.98,0.78,1.18,1.7,1.06,2.85
			c0.04-0.35-0.12,0.51-0.15,0.62c-0.08,0.3-0.18,0.6-0.3,0.9c-0.03,0.08-0.16,0.37-0.32,0.68c-0.19,0.39-0.4,0.77-0.62,1.14
			c-0.76,1.31-1.63,2.56-2.41,3.85c-1.64,2.72-2.93,5.89-1.53,8.99c1.53,3.39,5.45,4.16,7.7,6.68c1.75,1.97,2.9,5.01,3.13,7.62
			c0.26,3.02-0.15,5.91-1.62,8.47c-0.95,1.65-2.42,2.92-3.86,4.3c-3.81,3.66-7.63,7.3-11.4,10.99c-1.76,1.73-3.34,3.52-4.23,5.87
			c-1.03,2.7-0.81,5.7-0.09,8.44c0.67,2.57,1.78,4.99,2.58,7.52c0.17,0.53,0.33,1.07,0.46,1.62c0.07,0.3,0.13,0.61,0.19,0.91
			c0.02,0.09,0.07,0.49,0.01,0.01c0.02,0.19,0.04,0.37,0.05,0.56c0.04,0.55,0.04,1.11-0.03,1.65c0.07-0.55-0.08,0.27-0.12,0.41
			c-0.04,0.14-0.31,0.89-0.13,0.46c-0.5,1.16-1.11,1.86-2.2,2.7c-1.56,1.19-3.41,1.8-5.32,2.15c-4.05,0.73-8.24,0.16-12.32,0.6
			c-7.82,0.84-15.11,4.68-20.42,10.47c-2.62,2.85-4.77,6.12-6.27,9.69c-0.53,1.24-0.37,2.68,0.9,3.42c1.05,0.61,2.89,0.35,3.42-0.9
			c2.95-6.99,8.43-12.83,15.46-15.82c3.63-1.55,7.39-2.02,11.3-2.08c4.29-0.06,8.76,0.07,12.8-1.6c3.31-1.37,6.31-3.86,7.48-7.34
			c0.87-2.6,0.42-5.46-0.36-8.02c-0.79-2.57-1.93-5.02-2.62-7.63c-0.17-0.64-0.32-1.28-0.41-1.94c0.07,0.48-0.03-0.45-0.04-0.55
			c-0.02-0.32-0.03-0.64-0.02-0.97c0.03-0.92,0.31-2.11,0.84-3.05c0.9-1.61,2.52-2.96,3.92-4.33c2.04-1.98,4.09-3.95,6.13-5.91
			c3.77-3.62,8.09-6.95,9.93-12.01c2.33-6.41,0.9-14.32-3.69-19.38c-1.18-1.3-2.61-2.32-4.13-3.16c-0.73-0.4-1.59-0.77-2.13-1.42
			c-0.18-0.22-0.35-0.49-0.46-0.76c0.11,0.28-0.05-0.53-0.03-0.21c-0.02-0.27-0.02-0.54,0.01-0.81c-0.05,0.46,0.1-0.34,0.15-0.5
			c0.22-0.74,0.31-0.87,0.74-1.67c0.74-1.36,1.63-2.63,2.44-3.94c1.73-2.79,3.22-6,2.38-9.35c-0.96-3.84-4.6-5.76-8.25-6.27
			c-4.19-0.58-8.57,0.15-12.73,0.69c-4.87,0.64-9.71,1.48-14.5,2.58c-9.54,2.2-18.84,5.37-27.77,9.36
			c-8.65,3.87-16.85,9.52-26.19,11.64c-4.11,0.93-8.49,0.89-12.42-0.79c-3.47-1.49-6.41-4.06-8.73-7
			c-5.57-7.04-7.47-16.26-8.32-24.99c-2.01-20.66-1.35-41.78,1.05-62.37c0.99-8.48,2.59-17.69-1.33-25.7
			c-3.89-7.96-12.6-10.78-20.84-11.45c-8.72-0.71-18.13,0.15-25.85,4.59c-6.16,3.54-10.6,9.17-11.79,16.25
			c-0.65,3.89-0.59,7.82-0.21,11.73c0.13,1.34,1.06,2.5,2.5,2.5C206.58,269.98,207.96,268.84,207.83,267.48L207.83,267.48z"/>
	</g>
</g>
<g>
	<g>
		<path d="M207.29,289.03c2.41,20.57,5.35,41.09,8.86,61.5c3.46,20.15,7.37,40.26,12.03,60.17c4.15,17.72,9.97,36.25,23.43,49.24
			c6.57,6.34,14.59,10.33,23.4,12.57c9.78,2.48,19.96,3.62,29.95,4.88c10.18,1.28,20.66,3.16,30.93,1.92
			c9.82-1.19,18.97-4.94,27.83-9.17c2.15-1.03,4.29-2.09,6.42-3.15c2.88-1.43,0.35-5.75-2.52-4.32
			c-8.36,4.15-16.81,8.34-25.93,10.55c-9.73,2.35-19.53,1.29-29.35,0.09c-9.97-1.22-19.98-2.4-29.85-4.27
			c-8.56-1.62-17.08-4.14-23.99-9.67c-13.8-11.04-20.11-28.39-24.3-44.98c-4.86-19.26-8.58-38.88-12.06-58.43
			c-3.52-19.79-6.53-39.67-8.99-59.63c-0.3-2.43-0.59-4.86-0.88-7.3c-0.16-1.34-1.04-2.5-2.5-2.5
			C208.56,286.53,207.14,287.68,207.29,289.03L207.29,289.03z"/>
	</g>
</g>
<g>
	<g>
		<path d="M373.29,467.23c6.2-1.35,12.49-2.67,18.22-5.49c2.7-1.33,5.17-3.04,7.51-4.92c2.63-2.12,6.17-4.99,4.77-8.81
			c-0.58-1.58-1.77-2.78-2.94-3.95c-0.86-0.86-1.74-1.71-1.82-2.93c-0.09-1.4,0.72-2.79,1.46-3.92c1.01-1.55,2.29-2.9,3.6-4.19
			c4.76-4.65,13.26-10.94,9.79-18.64c-1.27-2.82-4.41-4.74-5.1-7.8c-0.24-1.05-0.02-2.23,0.4-3.39c0.5-1.39,1.36-2.67,2.21-3.86
			c2.06-2.87,4.61-5.38,7-7.96c2.69-2.91,5.2-5.98,7.23-9.4c1.9-3.19,3.43-6.65,4.4-10.24c0.49-1.8,0.81-3.63,1.03-5.48
			c0.2-1.75,0.31-3.6-0.28-5.28c-1.39-3.94-5.51-5.16-9.26-5.63c-2.82-0.35-5.59-0.14-8.37,0.39c-6.01,1.13-11.82,3.58-17.25,6.35
			c-5.12,2.61-10.14,5.68-14.48,9.48c-0.79,0.69-1.54,1.41-2.25,2.19c-2.16,2.38,1.37,5.92,3.54,3.54
			c3.21-3.54,7.14-6.05,11.31-8.49c5.02-2.93,10.33-5.44,15.9-7.12c2.4-0.72,4.9-1.31,7.14-1.48c2.56-0.19,5.74-0.13,8,1.22
			c1.16,0.69,1.21,1.86,1.16,3.11c-0.07,1.59-0.34,3.16-0.7,4.71c-0.78,3.33-2.07,6.49-3.76,9.46c-3.55,6.23-8.96,10.79-13.35,16.36
			c-1.93,2.45-3.84,5.2-4.45,8.32c-0.66,3.37,0.29,6.34,2.37,9.01c1.6,2.07,4.04,4.06,3.14,6.9c-0.98,3.08-3.9,5.55-6.18,7.68
			c-4.5,4.19-12.2,11.09-8.16,17.96c0.76,1.3,1.9,2.32,2.93,3.39c0.38,0.39,0.76,0.76,0.99,1.23c0.04,0.08,0.05,0.35,0.08,0.22
			c0.05-0.21-0.13,0.27-0.18,0.36c-0.81,1.24-2.3,2.24-3.44,3.16c-1.04,0.84-2.14,1.61-3.27,2.33c-4.63,2.93-9.73,4.4-15.08,5.65
			c-1.72,0.4-3.44,0.78-5.17,1.16C368.82,463.09,370.15,467.91,373.29,467.23L373.29,467.23z"/>
	</g>
</g>
<g>
	<g>
		<path d="M308.98,478.46c-0.81,17.66-7.42,34.36-14.99,50.12c-2.2,4.58-4.49,9.11-6.79,13.64c-1.45,2.86,2.86,5.4,4.32,2.52
			c8.27-16.29,16.69-32.92,20.48-50.92c1.06-5.06,1.75-10.2,1.99-15.36C314.13,475.24,309.13,475.25,308.98,478.46L308.98,478.46z"
			/>
	</g>
</g>
<g>
	<g>
		<path d="M366.87,540.94c1.28-9.78-1.42-20.03-4.54-29.24c-2.95-8.7-6.92-17.06-11.85-24.81c-2.83-4.45-5.98-8.69-9.37-12.71
			c-0.87-1.03-2.64-0.9-3.54,0c-1.02,1.02-0.87,2.5,0,3.54c11.32,13.41,19.3,29.56,23.13,46.68c1.22,5.44,1.9,10.98,1.17,16.55
			c-0.18,1.34,1.28,2.5,2.5,2.5C365.86,543.44,366.69,542.29,366.87,540.94L366.87,540.94z"/>
	</g>
</g>
<g>
	<g>
		<path d="M290.02,541.89c-2.34-1.34-4.82-2.46-7.37-3.34c-1.26-0.43-2.55-0.8-3.85-1.1c-1.11-0.26-2.29-0.54-3.44-0.43
			c-1.37,0.12-2.66,0.56-3.53,1.68c-1.02,1.31-1.06,3.14-0.17,4.54c1.37,2.17,4.18,3.55,6.58,4.24c2.7,0.77,5.63,0.77,8.32-0.04
			c1.25-0.37,2.17-1.77,1.75-3.08c-0.41-1.27-1.73-2.15-3.08-1.75c-0.3,0.09-0.61,0.17-0.91,0.24c-0.09,0.02-0.85,0.16-0.6,0.12
			c0.25-0.04-0.52,0.05-0.61,0.05c-0.31,0.02-0.63,0.03-0.94,0.02c-0.24,0-0.47-0.01-0.71-0.03c-0.16-0.01-0.31-0.03-0.47-0.04
			c0.27,0.04,0.26,0.04-0.04-0.01c-0.54-0.1-1.08-0.22-1.61-0.38c-0.26-0.08-0.52-0.17-0.78-0.27c-0.16-0.06-0.15-0.06,0.05,0.03
			c-0.14-0.06-0.29-0.13-0.43-0.2c-0.5-0.24-0.98-0.51-1.43-0.82c-0.13-0.09-0.26-0.18-0.39-0.27c0.19,0.15,0.17,0.14-0.05-0.05
			c-0.09-0.08-0.18-0.16-0.26-0.25c-0.12-0.13-0.12-0.11,0,0.05c-0.15-0.26-0.17-0.26-0.06-0.02c0.04,0.17,0.04,0.33,0,0.5
			c-0.05,0.22-0.16,0.41-0.32,0.57c-0.29,0.2-0.36,0.25-0.2,0.15c0.16-0.09,0.09-0.07-0.23,0.08c0.11-0.04,0.22-0.07,0.33-0.1
			c0.28-0.05,0.23-0.05-0.13,0.01c0.12-0.01,0.25-0.01,0.37-0.01c0.14,0,0.45-0.04,0.56,0.03c-0.36-0.05-0.4-0.06-0.13-0.01
			c0.18,0.04,0.36,0.07,0.54,0.11c1.26,0.27,2.51,0.6,3.73,0.99c0.61,0.2,1.22,0.41,1.83,0.63c0.34,0.13,0.69,0.26,1.03,0.4
			c0.83,0.34-0.39-0.18,0.42,0.18c1.26,0.57,2.49,1.19,3.69,1.88c1.13,0.65,2.79,0.3,3.42-0.9
			C291.55,544.12,291.23,542.58,290.02,541.89L290.02,541.89z"/>
	</g>
</g>
<g>
	<g>
		<path d="M362.93,540.3c-2.17,0.34-4.26,1.05-6.22,2.02c-0.93,0.46-1.82,0.99-2.66,1.59c-1.04,0.74-2.02,1.5-2.8,2.52
			c-0.81,1.07-1.2,2.47-0.85,3.79c0.42,1.59,2.09,2.69,3.71,2.6c1.27-0.08,2.38-0.6,3.5-1.17c0.91-0.47,1.79-0.99,2.64-1.57
			c2.02-1.38,3.86-2.99,5.44-4.86c0.84-1,1.05-2.57,0-3.54c-0.93-0.85-2.64-1.07-3.54,0c-0.54,0.64-1.11,1.26-1.72,1.85
			c-0.3,0.29-0.61,0.58-0.93,0.85c-0.14,0.12-0.27,0.24-0.41,0.35c-0.1,0.08-0.53,0.33-0.56,0.45c0.01-0.04,0.47-0.35,0.08-0.06
			c-0.07,0.05-0.14,0.11-0.22,0.16c-0.17,0.12-0.34,0.25-0.51,0.37c-0.35,0.24-0.7,0.47-1.06,0.69c-0.72,0.44-1.45,0.85-2.21,1.22
			c-0.11,0.06-0.7,0.32-0.33,0.16c0.39-0.16-0.21,0.06-0.29,0.08c-0.09,0.03-0.34,0.05,0.03,0.02c0.41-0.03,0.1,0,0.03-0.01
			c-0.43-0.06,0.21,0.04,0.23,0.04c0.22,0.06,0.45,0.21,0.6,0.37c0.17,0.18,0.28,0.42,0.35,0.65c-0.03-0.11-0.03-0.29,0,0.08
			c0.01,0.13,0.08,0.49-0.02,0.6c0.02-0.02,0.07-0.29,0.08-0.28c0.02,0.03-0.24,0.46-0.1,0.25c0.04-0.06,0.07-0.14,0.11-0.2
			c-0.01,0.02,0.18-0.26,0.18-0.26c0.04,0.04-0.38,0.41-0.09,0.14c0.07-0.06,0.89-0.79,0.89-0.78c0,0-0.38,0.28-0.15,0.11
			c0.07-0.05,0.15-0.11,0.22-0.16c0.2-0.14,0.39-0.28,0.6-0.42c0.7-0.48,1.44-0.91,2.2-1.29c0.22-0.11,0.44-0.21,0.66-0.31
			c0.08-0.03,0.29-0.1,0.33-0.15c-0.08,0.1-0.42,0.17-0.09,0.04c0.45-0.17,0.91-0.34,1.37-0.49c0.93-0.29,1.88-0.5,2.84-0.65
			c1.3-0.2,2.13-1.89,1.75-3.08C365.55,540.64,364.32,540.08,362.93,540.3L362.93,540.3z"/>
	</g>
</g>
</svg>
