<?xml version="1.0" encoding="utf-8"?>
<!-- Generator: Adobe Illustrator 27.2.0, SVG Export Plug-In . SVG Version: 6.00 Build 0)  -->
<svg version="1.1" id="Layer_1" xmlns="http://www.w3.org/2000/svg" xmlns:xlink="http://www.w3.org/1999/xlink" x="0px" y="0px"
	 viewBox="0 0 612 792" style="enable-background:new 0 0 612 792;" xml:space="preserve">
<style type="text/css">
	.st0{stroke:#000000;stroke-miterlimit:10;}
</style>
<ellipse transform="matrix(0.5685 -0.8227 0.8227 0.5685 -217.683 464.4496)" class="st0" cx="333.92" cy="439.74" rx="71.71" ry="7.6"/>
<g>
	<g>
		<path d="M358.97,402.83c2.83-20.79-2.94-41.84-14.24-59.34c-11.38-17.62-28.11-31.14-46.69-40.6
			c-10.58-5.38-21.76-9.55-33.19-12.7c-3.11-0.86-4.43,3.97-1.33,4.82c19.27,5.31,38.09,13.55,53.85,26.02
			c15.6,12.34,27.94,28.76,33.8,47.9c3.21,10.49,4.46,21.66,2.98,32.57c-0.18,1.34,0.32,2.68,1.75,3.08
			C357.06,404.89,358.79,404.17,358.97,402.83L358.97,402.83z"/>
	</g>
</g>
<g>
	<g>
		<path d="M262.03,291.34c-4.34,5.92-8.3,12.28-10.71,19.25c-1.15,3.33-1.92,6.92-1.74,10.46c0.19,3.77,1.52,7.12,3.69,10.2
			c2.37,3.36,5.33,6.22,7.82,9.48c2.32,3.04,4.24,6.47,5.6,10.04c2.73,7.16,3.64,15.09,2.23,22.65c-1.66,8.94-7.63,18.44-2.78,27.38
			c1.54,2.83,5.85,0.31,4.32-2.52c-1.82-3.36-1.26-7.22-0.33-10.77c1.02-3.9,2.53-7.65,3.38-11.59c1.64-7.6,1.32-15.6-0.85-23.07
			c-1.1-3.78-2.68-7.45-4.69-10.83c-2.06-3.46-4.67-6.47-7.31-9.5c-2.29-2.63-4.79-5.49-5.69-8.93c-0.76-2.92-0.41-6.09,0.36-9.04
			c1.98-7.58,6.42-14.44,11-20.69c0.8-1.09,0.18-2.79-0.9-3.42C264.19,289.7,262.83,290.25,262.03,291.34L262.03,291.34z"/>
	</g>
</g>
<g>
	<g>
		<path d="M333.6,422.91c-15.23-8.3-30.8-16.76-47.86-20.61c-7.86-1.77-16.08-2.67-24.04-1.05c-7.56,1.54-14.07,5.76-18.3,12.23
			c-4.05,6.19-5.79,13.63-7.02,20.83c-1.38,8.08-3.21,16.98,0.45,24.72c2.94,6.22,9.11,9.9,15.41,12.01
			c7.01,2.34,14.67,3.24,22,3.85c4.58,0.38,9.24,0.34,13.74-0.67c3.68-0.83,7.19-2.4,10.52-4.15c6.19-3.25,12.1-7.57,19.03-9.1
			c1.63-0.36,3.26-0.48,4.93-0.43c3.22,0.1,3.22-4.9,0-5c-14.64-0.46-24.72,12.87-38.83,14.37c-4.3,0.46-8.64,0.12-12.92-0.38
			c-3.41-0.4-6.81-0.85-10.18-1.51c-5.75-1.14-11.99-2.88-16.28-7.12c-5.35-5.29-4.91-12.94-3.89-19.84
			c1-6.79,2.04-13.84,4.77-20.19c2.66-6.18,7.17-11.28,13.61-13.6c6.71-2.41,14.12-2.24,21.06-1.06
			c16.4,2.79,31.43,10.29,45.93,18.11c1.79,0.97,3.57,1.94,5.36,2.91C333.9,428.77,336.43,424.45,333.6,422.91L333.6,422.91z"/>
	</g>
</g>
<g>
	<g>
		<path d="M359.67,384.32c2.79-7.43,3.43-15.72,3.3-23.59c-0.16-8.86-1.42-17.86-4.19-26.29c-2.48-7.54-6.2-14.39-12.33-19.54
			c-7.48-6.28-16.51-10.53-25.72-13.62c-11.53-3.87-23.8-5.93-35.97-5.95c-3.22-0.01-3.22,4.99,0,5
			c10.29,0.02,20.54,1.58,30.41,4.45c9.02,2.62,17.9,6.35,25.52,11.92c1.57,1.15,3.06,2.4,4.46,3.75c1.23,1.19,2.28,2.37,3.1,3.53
			c2.07,2.92,3.66,6.18,4.88,9.42c2.9,7.76,4.33,16.06,4.74,24.31c0.42,8.55,0.01,17.24-3.02,25.28c-0.48,1.26,0.53,2.74,1.75,3.08
			C357.99,386.45,359.19,385.59,359.67,384.32L359.67,384.32z"/>
	</g>
</g>
</svg>
