<?xml version="1.0" encoding="utf-8"?>
<!-- Generator: Adobe Illustrator 27.2.0, SVG Export Plug-In . SVG Version: 6.00 Build 0)  -->
<svg version="1.1" id="Layer_1" xmlns="http://www.w3.org/2000/svg" xmlns:xlink="http://www.w3.org/1999/xlink" x="0px" y="0px"
	 viewBox="0 0 612 792" style="enable-background:new 0 0 612 792;" xml:space="preserve">
<style type="text/css">
	.st0{stroke:#000000;stroke-miterlimit:10;}
</style>
<ellipse transform="matrix(0.5685 -0.8227 0.8227 0.5685 -221.1404 405.6226)" class="st0" cx="276.11" cy="413.63" rx="71.71" ry="7.6"/>
<g>
	<g>
		<path d="M292.9,382.42c2.83-20.79-2.94-41.84-14.24-59.34c-11.38-17.62-28.11-31.14-46.69-40.6c-10.58-5.38-21.76-9.55-33.19-12.7
			c-3.11-0.86-4.43,3.97-1.33,4.82c19.27,5.31,38.09,13.55,53.85,26.02c15.6,12.34,27.94,28.76,33.8,47.9
			c3.21,10.49,4.46,21.66,2.98,32.57c-0.18,1.34,0.32,2.68,1.75,3.08C290.99,384.49,292.72,383.77,292.9,382.42L292.9,382.42z"/>
	</g>
</g>
<g>
	<g>
		<path d="M193.36,270.94c-4.34,5.92-8.3,12.28-10.71,19.25c-1.15,3.33-1.92,6.92-1.74,10.46c0.19,3.77,1.52,7.12,3.69,10.2
			c2.37,3.36,5.33,6.22,7.82,9.48c2.32,3.04,4.24,6.47,5.6,10.04c2.73,7.16,3.64,15.09,2.23,22.65c-1.66,8.94-7.63,18.44-2.78,27.38
			c1.54,2.83,5.85,0.31,4.32-2.52c-1.82-3.36-1.26-7.22-0.33-10.77c1.02-3.9,2.53-7.65,3.38-11.59c1.64-7.6,1.32-15.6-0.85-23.07
			c-1.1-3.78-2.68-7.45-4.69-10.83c-2.06-3.46-4.67-6.47-7.31-9.5c-2.29-2.63-4.79-5.49-5.69-8.93c-0.76-2.92-0.41-6.09,0.36-9.04
			c1.98-7.58,6.42-14.44,11-20.69c0.8-1.09,0.18-2.79-0.9-3.42C195.51,269.3,194.16,269.84,193.36,270.94L193.36,270.94z"/>
	</g>
</g>
<g>
	<g>
		<path d="M266.72,399.15c-15.23-8.3-30.8-16.76-47.86-20.61c-7.86-1.77-16.08-2.67-24.04-1.05c-7.56,1.54-14.07,5.76-18.3,12.23
			c-4.05,6.19-5.79,13.63-7.02,20.83c-1.38,8.08-3.21,16.98,0.45,24.72c2.94,6.22,9.11,9.9,15.41,12.01
			c7.01,2.34,14.67,3.24,22,3.85c4.58,0.38,9.24,0.34,13.74-0.67c3.68-0.83,7.19-2.4,10.52-4.15c6.19-3.25,12.1-7.57,19.03-9.1
			c1.63-0.36,3.26-0.48,4.93-0.43c3.22,0.1,3.22-4.9,0-5c-14.64-0.46-24.72,12.87-38.83,14.37c-4.3,0.46-8.64,0.12-12.92-0.38
			c-3.41-0.4-6.81-0.85-10.18-1.51c-5.75-1.14-11.99-2.88-16.28-7.12c-5.35-5.29-4.91-12.94-3.89-19.84
			c1-6.79,2.04-13.84,4.77-20.19c2.66-6.18,7.17-11.28,13.61-13.6c6.71-2.41,14.12-2.24,21.06-1.06
			c16.4,2.79,31.43,10.29,45.93,18.11c1.79,0.97,3.57,1.94,5.36,2.91C267.02,405.01,269.55,400.69,266.72,399.15L266.72,399.15z"/>
	</g>
</g>
<g>
	<g>
		<g>
			<path d="M300.32,390.85c17.54-10.97,38.82-14.44,59.18-11.83c20.29,2.6,39.27,11.72,55.37,24.11c9.09,6.99,17.32,15.1,24.78,23.8
				c0.88,1.03,2.63,0.9,3.54,0c1.02-1.02,0.88-2.51,0-3.54c-13.73-16.02-30.28-30.04-49.42-39.16
				c-19.43-9.26-41.09-13.07-62.44-9.88c-11.84,1.77-23.37,5.83-33.54,12.19C295.07,388.23,297.58,392.56,300.32,390.85
				L300.32,390.85z"/>
		</g>
	</g>
	<g>
		<g>
			<path d="M440.34,426.26c-3.62,6.18-7.71,12.23-12.99,17.13c-2.34,2.17-5.05,4.21-8.06,5.3c-3.52,1.27-6.96,0.93-10.65,0.05
				c-4.44-1.05-8.73-2.47-13.27-3.03c-4.06-0.51-8.15-0.45-12.19,0.08c-8.17,1.08-16.13,4.05-22.85,8.87
				c-3.64,2.61-6.8,5.8-10.28,8.61c-3.09,2.49-6.62,4.62-10.72,4.4c-3.22-0.17-3.21,4.83,0,5c8.5,0.46,14.73-6.35,20.65-11.42
				c6.18-5.29,13.72-8.74,21.7-10.2c3.99-0.73,8.09-0.88,12.12-0.51c4.48,0.41,8.71,1.85,13.06,2.92c4.12,1.01,8.41,1.61,12.56,0.44
				c3.52-0.99,6.63-2.95,9.46-5.23c6.59-5.31,11.55-12.64,15.79-19.88C446.29,426,441.97,423.48,440.34,426.26L440.34,426.26z"/>
		</g>
	</g>
	<g>
		<g>
			<path d="M289.65,422.09c12.57,9.06,25.29,18.27,35.46,30.09c9.18,10.67,18.47,26.24,10.11,40.01
				c-3.51,5.79-9.04,10.13-14.53,13.92c-3.09,2.13-6.23,4.21-9.46,6.12c-3.26,1.93-6.81,3.73-10.63,4.19
				c-6.46,0.78-12-2.69-16.29-7.18c-4.78-5.01-8.55-11.16-11.96-17.17c-1.96-3.46-3.65-7.07-4.52-10.98
				c-0.82-3.67-0.71-7.48-0.42-11.2c0.59-7.51,2.19-15.15,0.44-22.63c-0.43-1.84-1.11-3.6-1.95-5.29c-1.43-2.88-5.74-0.35-4.32,2.52
				c3.46,6.97,1.83,15.27,1.08,22.66c-0.4,3.94-0.68,7.92-0.21,11.86c0.52,4.38,1.95,8.5,3.91,12.44c1.83,3.69,4.05,7.17,6.28,10.63
				c1.93,3,3.99,5.92,6.3,8.64c4.57,5.39,10.41,9.83,17.61,10.67c8.45,0.99,16.04-3.98,22.78-8.38c6.15-4.02,12.42-8.32,17.13-14.04
				c5.05-6.12,7.83-13.62,6.88-21.61c-1-8.4-5.01-16.02-9.96-22.76c-9.84-13.37-23.03-23.62-36.35-33.31
				c-1.62-1.18-3.24-2.35-4.87-3.52c-1.1-0.79-2.79-0.19-3.42,0.9C288.02,419.93,288.55,421.3,289.65,422.09L289.65,422.09z"/>
		</g>
	</g>
</g>
</svg>
